<?xml version="1.0" encoding="UTF-8" standalone="no"?>
<svg
   width="500"
   zoomAndPan="magnify"
   viewBox="0 0 375 374.999991"
   height="500"
   preserveAspectRatio="xMidYMid meet"
   version="1.2"
   id="svg6"
   sodipodi:docname="3.svg"
   inkscape:version="1.4.2 (ebf0e940d0, 2025-05-08)"
   xmlns:inkscape="http://www.inkscape.org/namespaces/inkscape"
   xmlns:sodipodi="http://sodipodi.sourceforge.net/DTD/sodipodi-0.dtd"
   xmlns="http://www.w3.org/2000/svg"
   xmlns:svg="http://www.w3.org/2000/svg">
  <sodipodi:namedview
     id="namedview6"
     pagecolor="#ffffff"
     bordercolor="#000000"
     borderopacity="0.25"
     inkscape:showpageshadow="2"
     inkscape:pageopacity="0.0"
     inkscape:pagecheckerboard="0"
     inkscape:deskcolor="#d1d1d1"
     inkscape:zoom="1.1735333"
     inkscape:cx="201.95422"
     inkscape:cy="280.77602"
     inkscape:window-width="1920"
     inkscape:window-height="1019"
     inkscape:window-x="0"
     inkscape:window-y="30"
     inkscape:window-maximized="1"
     inkscape:current-layer="b411e515b7" />
  <defs
     id="defs1">
    <clipPath
       id="4569966fe3">
      <path
         d="M 59.761719 69.03125 L 337.5 69.03125 L 337.5 312.722656 L 59.761719 312.722656 Z M 59.761719 69.03125 "
         id="path1" />
    </clipPath>
  </defs>
  <g
     id="b411e515b7">
    <g
       id="g7"
       transform="translate(-24.949145,35.157642)">
      <g
         style="fill:#db79b3;fill-opacity:1;stroke-width:0.314092"
         id="g4"
         transform="matrix(3.1837785,0,0,3.1837785,-381.97348,-527.79859)">
        <g
           transform="translate(147.05402,255.15989)"
           id="g3"
           style="stroke-width:0.314092">
          <path
             style="stroke:none;stroke-width:0.314092"
             d="m 47.375,-77.46875 c 7.96875,0 14.851562,0.71875 20.65625,2.15625 5.8125,1.4375 10.273438,3.453125 13.390625,6.046875 3.125,2.59375 4.6875,5.523437 4.6875,8.78125 0,3.367187 -1.324219,6.105469 -3.96875,8.21875 -2.636719,2.105469 -6.304687,3.15625 -11,3.15625 -4.804687,0 -8.859375,-1.195313 -12.171875,-3.59375 C 55.65625,-55.097656 54,-58.125 54,-61.78125 c 0,-1.238281 0.191406,-2.4375 0.578125,-3.59375 -1.730469,-0.476562 -3.265625,-0.71875 -4.609375,-0.71875 -2.398438,0 -4.390625,0.578125 -5.984375,1.734375 -1.585937,1.148437 -2.324219,2.777344 -2.21875,4.890625 0,2.492188 1.242187,4.601562 3.734375,6.328125 2.5,1.730469 6.53125,3.890625 12.09375,6.484375 4.800781,2.117188 8.757812,4.0625 11.875,5.84375 3.125,1.773438 5.765625,4 7.921875,6.6875 2.164063,2.6875 3.25,5.855469 3.25,9.5 0,0.773438 -0.195313,2.214844 -0.578125,4.328125 -1.53125,6.429687 -5.804688,11.515625 -12.8125,15.265625 -7.011719,3.742188 -16.230469,5.609375 -27.65625,5.609375 -12.867188,0 -23.0625,-1.726563 -30.59375,-5.1875 -7.53125,-3.457031 -11.296875,-8.207031 -11.296875,-14.25 0,-4.132813 1.246094,-7.253906 3.734375,-9.359375 2.5,-2.113281 5.8125,-3.171875 9.9375,-3.171875 4.800781,0 8.90625,1.492187 12.3125,4.46875 3.40625,2.96875 5.109375,6.761719 5.109375,11.375 0,1.242187 -0.140625,2.539063 -0.421875,3.890625 2.300781,0.574219 4.503906,0.859375 6.609375,0.859375 2.5,0 4.5625,-0.671875 6.1875,-2.015625 1.632813,-1.34375 2.453125,-3.21875 2.453125,-5.625 -0.09375,-2.207031 -1.199219,-4.101562 -3.3125,-5.6875 -2.105469,-1.582031 -5.464844,-3.476562 -10.078125,-5.6875 -4.3125,-2.007812 -7.867187,-3.898438 -10.65625,-5.671875 -2.78125,-1.78125 -5.15625,-4.015625 -7.125,-6.703125 C 10.484375,-44.875 9.5,-48.046875 9.5,-51.703125 c 0,-7.863281 3.285156,-14.125 9.859375,-18.78125 6.582031,-4.65625 15.921875,-6.984375 28.015625,-6.984375 z m 0,0"
             id="path3" />
        </g>
      </g>
      <g
         style="fill:#ff9b55;fill-opacity:1;stroke-width:0.314092"
         id="g6"
         transform="matrix(3.1837785,0,0,3.1837785,-381.97348,-527.79859)">
        <g
           transform="translate(144.79922,251.6878)"
           id="g5"
           style="stroke-width:0.314092">
          <path
             style="stroke:none;stroke-width:0.314092"
             d="m 47.375,-80.171875 c 8.1875,0 15.292969,0.746094 21.316406,2.238281 6.207032,1.539063 11.027344,3.738282 14.464844,6.59375 3.769531,3.128906 5.65625,6.75 5.65625,10.859375 0,4.226563 -1.660156,7.664063 -4.972656,10.316407 -3.132813,2.507812 -7.367188,3.761718 -12.703125,3.761718 -5.382813,0 -9.96875,-1.371094 -13.753907,-4.117187 -4.054687,-2.9375 -6.082031,-6.691407 -6.082031,-11.257813 0,-1.539062 0.238281,-3.023437 0.714844,-4.453125 l 2.558594,0.855469 -0.722657,2.601562 c -1.488281,-0.414062 -2.785156,-0.621093 -3.882812,-0.621093 -1.816406,0 -3.277344,0.402343 -4.390625,1.210937 -0.796875,0.582032 -1.171875,1.445313 -1.121094,2.589844 l 0.0039,0.05859 v 0.0625 c 0,1.554687 0.859374,2.925781 2.578124,4.117187 2.371094,1.640625 6.269532,3.722657 11.699219,6.25 4.851563,2.136719 8.875,4.113281 12.078125,5.933594 3.417969,1.945313 6.3125,4.398437 8.6875,7.351563 2.558594,3.183593 3.835938,6.914062 3.835938,11.195312 0,0.929688 -0.207032,2.53125 -0.621094,4.804688 l -0.01172,0.07031 -0.01563,0.07422 c -1.726562,7.21875 -6.449218,12.890625 -14.171875,17.015625 -7.40625,3.957031 -17.042969,5.9375 -28.917969,5.9375 -13.257812,0 -23.832031,-1.8125 -31.726562,-5.429688 -8.585938,-3.9375 -12.878906,-9.507812 -12.878906,-16.710937 0,-4.964844 1.566406,-8.769531 4.699218,-11.421875 3,-2.539063 6.894532,-3.808594 11.679688,-3.808594 5.476562,0 10.171875,1.710938 14.089844,5.132812 4.023437,3.511719 6.035156,7.984376 6.035156,13.410157 0,1.4375 -0.164062,2.921875 -0.492188,4.453125 l -2.640624,-0.566406 0.65625,-2.621094 c 2.089843,0.523437 4.078124,0.785156 5.96875,0.785156 1.851562,0 3.34375,-0.464844 4.476562,-1.398438 0.976562,-0.804687 1.464844,-1.984374 1.464844,-3.535156 h 2.699218 l -2.699218,0.117188 c -0.05859,-1.355469 -0.804688,-2.570313 -2.234375,-3.644532 -1.96875,-1.476562 -5.179688,-3.28125 -9.625,-5.414062 -4.410157,-2.054688 -8.058594,-4.003906 -10.941407,-5.84375 -3.070312,-1.957031 -5.6875,-4.417969 -7.855468,-7.378906 -2.316406,-3.164063 -3.472656,-6.863282 -3.472656,-11.097656 0,-8.804688 3.667968,-15.800782 11.003906,-20.996094 7.042968,-4.988282 16.898437,-7.480469 29.566406,-7.480469 z m 0,5.398437 c -11.523438,0 -20.339844,2.164063 -26.445312,6.488282 -5.816407,4.117187 -8.726563,9.648437 -8.726563,16.589844 0,3.058593 0.8125,5.695312 2.429687,7.910156 1.769532,2.414062 3.902344,4.417968 6.402344,6.011718 2.683594,1.714844 6.140625,3.558594 10.371094,5.53125 4.769531,2.285157 8.28125,4.273438 10.535156,5.960938 2.792969,2.097656 4.253906,4.671875 4.386719,7.730469 l 0.0039,0.05859 v 0.05859 c 0,3.25 -1.144531,5.816406 -3.429687,7.703125 -2.132813,1.753907 -4.769532,2.628907 -7.910156,2.628907 -2.332032,0 -4.761719,-0.3125 -7.277344,-0.941407 l -2.535156,-0.632812 0.546874,-2.554688 c 0.25,-1.15625 0.375,-2.265625 0.375,-3.320312 0,-3.792969 -1.398437,-6.90625 -4.191406,-9.34375 -2.898431,-2.531243 -6.41015,-3.796868 -10.53515,-3.796868 -3.46875,0 -6.199219,0.84375 -8.191406,2.527344 -1.859375,1.574218 -2.789063,4.007812 -2.789063,7.300781 0,4.890625 3.246094,8.828125 9.730469,11.800781 7.179688,3.292969 17.003906,4.9375 29.476562,4.9375 10.972657,0 19.761719,-1.765625 26.375,-5.296875 6.292969,-3.363281 10.113282,-7.863281 11.460938,-13.507813 l 2.625,0.625 -2.65625,-0.480468 c 0.355469,-1.953125 0.535156,-3.234375 0.535156,-3.839844 0,-3.011719 -0.882812,-5.617188 -2.644531,-7.8125 -1.945313,-2.421875 -4.332031,-4.433594 -7.152344,-6.039062 -3.039062,-1.730469 -6.933593,-3.640626 -11.683593,-5.730469 -5.707032,-2.65625 -9.871094,-4.894531 -12.492188,-6.710938 -3.273438,-2.261719 -4.910156,-5.113281 -4.910156,-8.554687 h 2.703125 l -2.699219,0.125 c -0.140625,-3.082032 0.972656,-5.480469 3.339844,-7.203125 2.058594,-1.496094 4.582031,-2.246094 7.566406,-2.246094 1.589844,0 3.367188,0.273437 5.328125,0.820313 l 2.738281,0.757812 -0.898437,2.695312 c -0.289063,0.875 -0.4375,1.792969 -0.4375,2.746094 0,2.730469 1.285156,5.027344 3.851562,6.886719 2.839844,2.058594 6.367188,3.085937 10.585938,3.085937 4.070312,0 7.183593,-0.859374 9.328125,-2.574218 1.964844,-1.574219 2.945312,-3.605469 2.945312,-6.101563 0,-2.417969 -1.234375,-4.65625 -3.703125,-6.707031 -2.804687,-2.328125 -6.910156,-4.164062 -12.316406,-5.503906 C 61.796875,-74.078125 55.125,-74.773438 47.375,-74.773438 Z m 0,0"
             id="path4" />
        </g>
      </g>
    </g>
  </g>
</svg>
