<?xml version="1.0" encoding="UTF-8" standalone="no"?>
<svg
   width="500"
   zoomAndPan="magnify"
   viewBox="0 0 375 374.999991"
   height="500"
   preserveAspectRatio="xMidYMid meet"
   version="1.2"
   id="svg12"
   sodipodi:docname="logo192.svg"
   inkscape:version="1.4.2 (ebf0e940d0, 2025-05-08)"
   xmlns:inkscape="http://www.inkscape.org/namespaces/inkscape"
   xmlns:sodipodi="http://sodipodi.sourceforge.net/DTD/sodipodi-0.dtd"
   xmlns="http://www.w3.org/2000/svg"
   xmlns:svg="http://www.w3.org/2000/svg">
  <sodipodi:namedview
     id="namedview12"
     pagecolor="#ffffff"
     bordercolor="#000000"
     borderopacity="0.25"
     inkscape:showpageshadow="2"
     inkscape:pageopacity="0.0"
     inkscape:pagecheckerboard="0"
     inkscape:deskcolor="#d1d1d1"
     inkscape:zoom="1.634"
     inkscape:cx="250"
     inkscape:cy="250"
     inkscape:window-width="1920"
     inkscape:window-height="1019"
     inkscape:window-x="0"
     inkscape:window-y="30"
     inkscape:window-maximized="1"
     inkscape:current-layer="1cdfc1335f" />
  <defs
     id="defs4">
    <clipPath
       id="773c921e84">
      <path
         d="M 29.347656 29.347656 L 345.652344 29.347656 L 345.652344 345.652344 L 29.347656 345.652344 Z M 29.347656 29.347656 "
         id="path1" />
    </clipPath>
    <clipPath
       id="0231cff386">
      <path
         d="M 187.5 29.347656 C 100.15625 29.347656 29.347656 100.15625 29.347656 187.5 C 29.347656 274.84375 100.15625 345.652344 187.5 345.652344 C 274.84375 345.652344 345.652344 274.84375 345.652344 187.5 C 345.652344 100.15625 274.84375 29.347656 187.5 29.347656 Z M 187.5 29.347656 "
         id="path2" />
    </clipPath>
    <clipPath
       id="8e71ab0ca9">
      <path
         d="M 29.347656 29.347656 L 345.117188 29.347656 L 345.117188 345.117188 L 29.347656 345.117188 Z M 29.347656 29.347656 "
         id="path3" />
    </clipPath>
    <clipPath
       id="5f08dc66ba">
      <path
         d="M 187.230469 29.347656 C 100.035156 29.347656 29.347656 100.035156 29.347656 187.230469 C 29.347656 274.429688 100.035156 345.117188 187.230469 345.117188 C 274.429688 345.117188 345.117188 274.429688 345.117188 187.230469 C 345.117188 100.035156 274.429688 29.347656 187.230469 29.347656 Z M 187.230469 29.347656 "
         id="path4" />
    </clipPath>
  </defs>
  <g
     id="1cdfc1335f">
    <g
       clip-rule="nonzero"
       clip-path="url(#773c921e84)"
       id="g6">
      <g
         clip-rule="nonzero"
         clip-path="url(#0231cff386)"
         id="g5">
        <path
           style="fill:#ffffff;fill-opacity:1;fill-rule:nonzero;stroke:none"
           d="M 29.347656,29.347656 H 345.65234 V 345.65234 H 29.347656 Z m 0,0"
           id="path5" />
      </g>
    </g>
    <g
       clip-rule="nonzero"
       clip-path="url(#8e71ab0ca9)"
       id="g8">
      <g
         clip-rule="nonzero"
         clip-path="url(#5f08dc66ba)"
         id="g7">
        <path
           style="fill:none;stroke-width:4.674293;stroke-linecap:butt;stroke-linejoin:miter;stroke:#ff9b55;stroke-opacity:1;stroke-miterlimit:4;"
           d="M 123.201989 0.00045061 C 55.160402 0.00045061 0.00044429 55.160408 0.00044429 123.201995 C 0.00044429 191.246631 55.160402 246.406588 123.201989 246.406588 C 191.246625 246.406588 246.406582 191.246631 246.406582 123.201995 C 246.406582 55.160408 191.246625 0.00045061 123.201989 0.00045061 Z M 123.201989 0.00045061 "
           transform="matrix(1.2815,0,0,1.2815,29.347087,29.347079)"
           id="path6" />
      </g>
    </g>
    <g
       id="g13"
       transform="translate(1.7030872,-9.7101747)">
      <g
         style="fill:#db79b3;fill-opacity:1"
         id="g10">
        <g
           transform="translate(100.97427,286.06483)"
           id="g9">
          <path
             style="stroke:none"
             d="m 101.35938,-165.73437 c 17.03906,0 31.77343,1.54296 44.20312,4.625 12.42578,3.07421 21.97266,7.38671 28.64062,12.9375 6.67579,5.54296 10.01563,11.80468 10.01563,18.78125 0,7.18749 -2.82422,13.04296 -8.46875,17.56249 -5.64844,4.52344 -13.5,6.78125 -23.5625,6.78125 -10.27344,0 -18.94922,-2.5664 -26.03125,-7.70312 -7.08594,-5.13281 -10.625,-11.60156 -10.625,-19.40625 0,-2.66406 0.40625,-5.23437 1.21875,-7.70312 -3.69922,-1.03125 -6.98437,-1.54688 -9.85937,-1.54688 -5.125,0 -9.386724,1.23438 -12.781255,3.70313 -3.386719,2.46875 -4.976563,5.96093 -4.765625,10.46874 0,5.34375 2.664062,9.86719 8,13.5625 5.34375,3.69922 13.96875,8.32032 25.875,13.85938 10.26953,4.523438 18.74219,8.683594 25.42187,12.484375 6.67579,3.792969 12.32032,8.5625 16.9375,14.3125 4.625,5.75 6.9375,12.53125 6.9375,20.34375 0,1.636719 -0.41406,4.714844 -1.23437,9.234375 C 168,-29.675781 158.85937,-18.789062 143.85937,-10.78125 128.86719,-2.769531 109.15625,1.234375 84.71875,1.234375 57.195312,1.234375 35.375,-2.460938 19.25,-9.859375 c -16.117188,-7.394531 -24.171875,-17.5625 -24.171875,-30.5 0,-8.832031 2.667969,-15.503906 8,-20.015625 5.34375,-4.519531 12.429687,-6.78125 21.265625,-6.78125 10.257812,0 19.035156,3.183594 26.328125,9.546875 7.289063,6.367187 10.9375,14.480469 10.9375,24.34375 0,2.667969 -0.308594,5.4375 -0.921875,8.3125 4.925781,1.230469 9.648438,1.84375 14.171875,1.84375 5.34375,0 9.757813,-1.4375 13.25,-4.3125 3.488281,-2.875 5.234375,-6.878906 5.234375,-12.015625 -0.210938,-4.71875 -2.574219,-8.769531 -7.09375,-12.15625 -4.511719,-3.394531 -11.699219,-7.453125 -21.5625,-12.171875 -9.242188,-4.3125 -16.839844,-8.367187 -22.796875,-12.171875 -5.949219,-3.800781 -11.03125,-8.578125 -15.25,-14.328125 -4.210937,-5.75 -6.3125,-12.523435 -6.3125,-20.328125 0,-16.84375 7.03125,-30.24219 21.09375,-40.20312 14.070313,-9.95704 34.050781,-14.9375 59.937505,-14.9375 z m 0,0"
             id="path8" />
        </g>
      </g>
      <g
         style="fill:#ff9b55;fill-opacity:1"
         id="g12">
        <g
           transform="translate(96.150426,278.63676)"
           id="g11">
          <path
             style="stroke:none"
             d="m 101.35547,-171.51562 c 17.51562,0 32.71484,1.59375 45.59765,4.78906 13.28125,3.29297 23.59766,7.99609 30.94922,14.10156 8.06641,6.70313 12.09766,14.44531 12.09766,23.23828 0,9.03906 -3.54688,16.39453 -10.64063,22.07031 -6.69921,5.35938 -15.75781,8.042972 -27.17187,8.042972 -11.51953,0 -21.32813,-2.933592 -29.42187,-8.800782 -8.67969,-6.28906 -13.01563,-14.31641 -13.01563,-24.08594 0,-3.29687 0.50781,-6.47265 1.52734,-9.53125 l 5.48047,1.82813 -1.54687,5.56641 c -3.19141,-0.88672 -5.96094,-1.32813 -8.3125,-1.32813 -3.88281,0 -7.011721,0.86328 -9.386721,2.58984 -1.710938,1.2461 -2.511719,3.09375 -2.402344,5.53907 l 0.0078,0.13281 v 0.13281 c 0,3.32031 1.839843,6.25391 5.519535,8.80469 5.07031,3.50781 13.41406,7.96875 25.02734,13.375 10.37891,4.5664 18.98828,8.796874 25.83594,12.695311 7.3125,4.160157 13.50781,9.402344 18.58984,15.726563 5.46875,6.804687 8.20313,14.789062 8.20313,23.949218 0,1.992188 -0.44141,5.414063 -1.32422,10.277344 l -0.0273,0.152344 -0.0391,0.152344 c -3.6875,15.449218 -13.79297,27.582031 -30.3125,36.410156 -15.84375,8.464844 -36.46875,12.695312 -61.871093,12.695312 -28.363281,0 -50.984375,-3.871093 -67.871094,-11.617187 -18.367187,-8.421875 -27.554687,-20.339844 -27.554687,-35.746094 0,-10.617187 3.351562,-18.761719 10.054687,-24.433593 6.417969,-5.429688 14.746094,-8.144532 24.988282,-8.144532 11.714843,0 21.761718,3.65625 30.140624,10.972656 8.609376,7.519532 12.914063,17.082032 12.914063,28.691407 0,3.074219 -0.351563,6.253906 -1.054687,9.527343 l -5.648438,-1.210937 1.402344,-5.605469 c 4.46875,1.117188 8.726562,1.675782 12.769531,1.675782 3.960937,0 7.152344,-0.996094 9.574219,-2.992188 2.089844,-1.722656 3.132812,-4.242188 3.132812,-7.558594 h 5.777344 l -5.769531,0.25 c -0.125,-2.902344 -1.71875,-5.5 -4.78125,-7.796875 C 78.578125,-50.140625 71.714844,-54 62.199219,-58.5625 c -9.4375,-4.402344 -17.238281,-8.570312 -23.410157,-12.507812 -6.5625,-4.1875 -12.164062,-9.449219 -16.800781,-15.78125 -4.953125,-6.765626 -7.433593,-14.679688 -7.433593,-23.746098 0,-18.83203 7.847656,-33.80468 23.542968,-44.91406 15.066406,-10.67187 36.152344,-16.0039 63.257814,-16.0039 z m 0,11.55078 c -24.652345,0 -43.515626,4.6289 -56.582032,13.8789 -12.441407,8.8125 -18.664063,20.64063 -18.664063,35.48828 0,6.54688 1.734375,12.187504 5.199219,16.921879 3.785156,5.167969 8.347656,9.457031 13.695312,12.867187 5.742188,3.664063 13.136719,7.605469 22.1875,11.828125 10.199219,4.890625 17.710938,9.140625 22.535156,12.757813 5.972657,4.480468 9.105469,9.996094 9.390626,16.539062 l 0.0039,0.125 v 0.125 c 0,6.953125 -2.449219,12.445313 -7.339844,16.472656 -4.558594,3.753907 -10.199219,5.632813 -16.921875,5.632813 -4.992187,0 -10.183594,-0.675781 -15.570313,-2.023437 l -5.417968,-1.351563 1.171875,-5.460937 c 0.527343,-2.476563 0.792969,-4.84375 0.792969,-7.105469 0,-8.109375 -2.984376,-14.773438 -8.957032,-19.988281 -6.203125,-5.417969 -13.71875,-8.125 -22.542968,-8.125 -7.417969,0 -13.261719,1.804687 -17.523438,5.410156 -3.976562,3.367187 -5.964844,8.570312 -5.964844,15.617187 0,10.46875 6.9375,18.882813 20.816406,25.246094 15.355469,7.042969 36.375,10.566406 63.054688,10.566406 23.476556,0 42.285156,-3.777343 56.425776,-11.335937 13.46484,-7.191406 21.64063,-16.824219 24.52344,-28.898438 l 5.61719,1.339844 -5.6836,-1.035156 c 0.76172,-4.175782 1.14063,-6.910156 1.14063,-8.207032 0,-6.449218 -1.88672,-12.019531 -5.66016,-16.714843 -4.16016,-5.179688 -9.25781,-9.484375 -15.29687,-12.921875 -6.50391,-3.703125 -14.83594,-7.789063 -24.9961,-12.261719 -12.20703,-5.683595 -21.117181,-10.464845 -26.726556,-14.351565 -7,-4.84375 -10.5,-10.94531 -10.5,-18.30078 h 5.777344 l -5.769532,0.26172 c -0.300781,-6.58984 2.082032,-11.72656 7.148438,-15.41016 4.398438,-3.19921 9.792966,-4.80078 16.179686,-4.80078 3.40234,0 7.20312,0.58203 11.40625,1.75 l 5.85547,1.62891 -1.92188,5.76562 c -0.625,1.8711 -0.9375,3.82813 -0.9375,5.875 0,5.83985 2.75,10.75 8.24219,14.73047 6.07422,4.40235 13.62109,6.60156 22.64453,6.60156 8.71094,0 15.36328,-1.83593 19.95703,-5.51171 4.20313,-3.36329 6.30469,-7.71094 6.30469,-13.04688 0,-5.17578 -2.64453,-9.96094 -7.92969,-14.35156 -5.99609,-4.98047 -14.77734,-8.90625 -26.34766,-11.77344 -11.96875,-2.96875 -26.24218,-4.45312 -42.8164,-4.45312 z m 0,0"
             id="path10" />
        </g>
      </g>
    </g>
  </g>
</svg>
